HIERARCHY
ROOT root
{
	OFFSET 0.000000 0.000000 0.000000
	CHANNELS 6 Xposition Yposition Zposition Zrotation Yrotation Xrotation
	JOINT lhip
	{
		OFFSET 0.058581 -0.082280 -0.017664
		CHANNELS 3 Zrotation Yrotation Xrotation
		JOINT lknee
		{
			OFFSET 0.043451 -0.386469 0.008037
			CHANNELS 3 Zrotation Yrotation Xrotation
			JOINT lankle
			{
				OFFSET -0.014790 -0.426874 -0.037428
				CHANNELS 3 Zrotation Yrotation Xrotation
				JOINT ltoe
				{
					OFFSET 0.041054 -0.060286 0.122042
					CHANNELS 3 Zrotation Yrotation Xrotation
					End Site
					{
						OFFSET 0.000000 0.000000 0.000000
					}
				}
			}
		}
	}
	JOINT rhip
	{
		OFFSET -0.060310 -0.090513 -0.013543
		CHANNELS 3 Zrotation Yrotation Xrotation
		JOINT rknee
		{
			OFFSET -0.043257 -0.383688 -0.004843
			CHANNELS 3 Zrotation Yrotation Xrotation
			JOINT rankle
			{
				OFFSET 0.019056 -0.420046 -0.034562
				CHANNELS 3 Zrotation Yrotation Xrotation
				JOINT rtoe
				{
					OFFSET -0.034840 -0.062106 0.130323
					CHANNELS 3 Zrotation Yrotation Xrotation
					End Site
					{
						OFFSET 0.000000 0.000000 0.000000
					}
				}
			}
		}
	}
	JOINT lowerback
	{
		OFFSET 0.004439 0.124404 -0.038385
		CHANNELS 3 Zrotation Yrotation Xrotation
		JOINT upperback
		{
			OFFSET 0.004488 0.137956 0.026820
			CHANNELS 3 Zrotation Yrotation Xrotation
			JOINT chest
			{
				OFFSET -0.002265 0.056032 0.002855
				CHANNELS 3 Zrotation Yrotation Xrotation
				JOINT lowerneck
				{
					OFFSET -0.013390 0.211636 -0.033468
					CHANNELS 3 Zrotation Yrotation Xrotation
					JOINT upperneck
					{
						OFFSET 0.010113 0.088937 0.050410
						CHANNELS 3 Zrotation Yrotation Xrotation
						End Site
						{
							OFFSET 0.000000 0.000000 0.000000
						}
					}
				}
				JOINT lclavicle
				{
					OFFSET 0.071702 0.114000 -0.018898
					CHANNELS 3 Zrotation Yrotation Xrotation
					JOINT lshoulder
					{
						OFFSET 0.122921 0.045205 -0.019046
						CHANNELS 3 Zrotation Yrotation Xrotation
						JOINT lelbow
						{
							OFFSET 0.255332 -0.015649 -0.022946
							CHANNELS 3 Zrotation Yrotation Xrotation
							JOINT lwrist
							{
								OFFSET 0.265709 0.012698 -0.007375
								CHANNELS 3 Zrotation Yrotation Xrotation
								End Site
								{
									OFFSET 0.000000 0.000000 0.000000
								}
							}
						}
					}
				}
				JOINT rclavicle
				{
					OFFSET -0.082954 0.112472 -0.023707
					CHANNELS 3 Zrotation Yrotation Xrotation
					JOINT rshoulder
					{
						OFFSET -0.113228 0.046853 -0.008472
						CHANNELS 3 Zrotation Yrotation Xrotation
						JOINT relbow
						{
							OFFSET -0.260127 -0.014369 -0.031269
							CHANNELS 3 Zrotation Yrotation Xrotation
							JOINT rwrist
							{
								OFFSET -0.269108 0.006794 -0.006027
								CHANNELS 3 Zrotation Yrotation Xrotation
								End Site
								{
									OFFSET 0.000000 0.000000 0.000000
								}
							}
						}
					}
				}
			}
		}
	}
}
MOTION
Frames: 16
Frame Time: 0.033333
0.215441 0.129675 0.997233 98.347455 0.336251 88.031116 6.547440 1.460589 15.190279 -9.646182 -13.231270 28.867767 -4.617906 4.942607 1.233727 0.000000 -0.000000 0.000000 -1.534764 4.074192 -22.293479 2.779108 -1.072828 19.924724 2.152813 -6.802526 2.495137 0.000000 -0.000000 0.000000 0.085108 -5.790384 9.275852 2.304543 -0.207067 -3.065676 -0.195436 -3.773769 -0.917256 4.636159 1.841009 -6.486473 -0.224886 -2.010835 13.114898 -32.195322 3.658258 1.363479 -54.437188 -12.324860 10.421381 7.275722 -22.281677 4.196065 -6.919930 -4.818044 -2.985465 32.145731 -1.517377 0.370558 51.733590 1.303934 16.768047 -5.682398 11.432632 -1.511311 12.318516 0.796191 -2.160147 
0.250033 0.124579 1.001308 98.317567 0.241771 87.418039 6.963632 0.931869 10.698059 -10.350298 -10.421011 38.936090 -5.027937 3.448986 8.911144 0.000000 -0.000000 0.000000 -0.282449 4.114895 -19.287335 2.497290 -0.812725 20.485079 0.131525 -6.585438 0.280319 0.000000 -0.000000 0.000000 -0.618370 -4.968332 10.100476 2.606012 -0.464716 -3.094658 -0.012151 -3.583653 -1.351854 4.493500 0.960496 -6.082297 0.410860 -1.921035 12.876308 -32.159511 3.795054 1.975961 -53.824696 -11.318937 10.016110 6.834179 -21.938958 4.789287 -7.372025 -4.328586 -3.356083 32.118836 -1.141646 0.484262 51.550058 1.444459 16.456391 -5.827691 11.693769 -1.533781 12.422281 0.592757 -2.805438 
0.282517 0.120756 1.004615 98.529672 0.427190 86.846387 7.434500 0.708683 4.671764 -9.447528 -7.175563 48.847416 -6.310947 2.646772 18.338270 0.000000 -0.000000 0.000000 0.831015 3.546227 -15.709666 2.563773 -0.753324 19.524025 -1.671238 -6.171662 -1.090617 0.000000 -0.000000 0.000000 -0.734667 -3.921119 11.207179 2.872087 -0.991330 -3.194048 0.063245 -3.463270 -2.033825 4.347306 0.094914 -5.578023 1.064679 -1.498381 12.495291 -32.438192 3.727266 2.329294 -52.945405 -10.529554 9.609014 6.194903 -21.153090 5.501664 -8.054005 -4.085374 -3.432367 31.927450 -0.792567 0.715284 51.283020 2.109174 16.001134 -5.806682 12.153698 -1.913631 12.288224 0.864233 -3.255181 
0.312351 0.118919 1.007501 98.024277 0.148374 86.380950 6.849137 -0.628572 -0.291015 -8.520519 -3.341975 55.391620 -5.738620 3.808386 22.138192 0.000000 -0.000000 0.000000 1.256360 2.767994 -12.548362 2.811680 0.110418 18.820155 -2.533444 -5.606930 -2.636524 0.000000 -0.000000 0.000000 -0.866516 -2.219927 11.966779 2.870881 -1.311186 -3.073065 -0.046748 -3.279289 -2.191951 4.310599 -0.836473 -5.382439 1.438250 -1.851267 12.414207 -32.516582 3.274569 2.305696 -52.422045 -9.932630 9.685753 5.675375 -20.832318 6.077562 -8.345028 -3.681055 -3.105236 31.858705 -0.280562 0.675417 50.881780 2.831338 15.834109 -6.196949 13.191535 -2.573360 12.025226 1.102782 -3.897554 
0.341171 0.117535 1.010992 97.284707 0.066054 85.898183 6.519756 -0.956821 -4.630269 -7.595002 -0.732050 60.130900 -4.467403 4.270119 13.763204 0.000000 -0.000000 0.000000 1.815125 2.094200 -8.994499 2.855663 1.064944 17.365384 -1.901553 -5.191291 -4.144421 0.000000 -0.000000 0.000000 -0.788374 -0.783717 13.098207 2.699012 -1.278498 -3.990176 -0.039303 -2.889305 -1.685657 4.521827 -0.902248 -5.659107 1.009192 -2.186725 13.483055 -32.411669 2.960961 1.879418 -52.467045 -9.114036 9.575175 5.181955 -20.664594 7.263073 -8.033582 -3.758436 -2.529008 31.735353 0.128533 0.274847 50.360986 3.772737 15.391158 -6.249578 14.038301 -2.757004 10.988401 1.673061 -4.218520 
0.369964 0.116659 1.014231 96.179591 -0.381034 85.637382 5.620298 -0.630790 -8.533742 -6.968205 0.979756 61.442401 -1.197396 4.253025 4.064427 0.000000 -0.000000 0.000000 1.919027 0.941661 -5.591377 2.646465 2.576021 15.444781 -0.934958 -4.491379 -5.500659 0.000000 -0.000000 0.000000 -1.224540 0.702477 13.896796 2.469863 -1.045655 -4.903499 0.166483 -2.315559 -1.200781 4.679086 -1.493451 -5.775220 0.845380 -2.802143 13.888895 -32.148033 2.859660 1.598587 -52.763103 -8.290114 9.231787 4.855103 -20.942719 7.893011 -7.452925 -3.511598 -3.149811 31.445955 0.526875 0.054819 49.952900 4.490626 14.843222 -6.217621 14.886096 -3.138773 10.275551 2.097996 -5.095463 
0.397227 0.115869 1.017166 94.896380 -0.808146 85.750032 5.137315 -0.606425 -12.347218 -5.854018 3.647919 59.247643 -0.339285 5.886202 0.002456 0.000000 -0.000000 0.000000 1.905476 0.438110 -2.721390 2.338498 3.895761 13.535338 -0.431455 -3.918756 -6.386687 0.000000 -0.000000 0.000000 -1.685913 2.129800 14.254303 2.277542 -0.859580 -5.544942 0.371794 -1.787731 -0.946566 4.788176 -1.368681 -5.993665 0.841601 -2.908259 14.080331 -31.908500 2.929505 1.420804 -53.228566 -7.785427 8.883309 4.943075 -21.155144 6.525761 -6.950492 -3.906344 -4.716093 31.166531 0.871209 0.014252 49.856926 5.487864 14.920034 -7.030374 15.947619 -3.579431 9.507200 2.359127 -5.733176 
0.424113 0.116026 1.019499 94.305275 -1.231222 85.881008 4.558266 -1.049195 -15.543602 -5.086246 5.566959 54.219499 0.378387 6.944657 -2.917172 0.000000 -0.000000 0.000000 1.628216 -0.357874 0.522944 2.012657 5.010089 10.927990 0.110562 -3.552143 -6.876828 0.000000 -0.000000 0.000000 -1.913193 3.293757 14.733327 2.026806 -1.138693 -6.152815 0.437572 -1.547931 -0.907955 4.878337 -1.455735 -6.304162 0.718861 -3.290560 14.423555 -31.675866 3.486169 1.239136 -53.801213 -7.431339 8.499096 5.331129 -21.982845 4.671816 -6.483303 -4.055542 -6.483857 30.854184 0.862022 -0.408389 49.954906 6.685478 15.013576 -7.688904 16.958745 -4.337593 9.085215 2.276198 -6.108388 
0.450410 0.116931 1.020400 93.682234 -1.690877 86.097702 4.213157 -2.598999 -17.803797 -5.390154 7.126451 46.300751 0.413388 7.241699 -3.463100 0.000000 -0.000000 0.000000 1.086576 -1.004457 3.408715 1.812412 6.079093 8.694269 0.565286 -3.341693 -7.559145 0.000000 -0.000000 0.000000 -2.043235 4.413549 14.993485 1.805181 -1.538512 -6.341850 0.425779 -1.220689 -0.951329 4.867120 -1.444741 -6.617246 0.759617 -3.920745 13.730857 -31.350297 3.878135 1.128822 -54.450688 -7.093132 8.681872 5.646791 -23.076726 3.836287 -6.090204 -4.731615 -8.282795 30.262247 1.254029 -0.371637 50.239652 7.698052 15.144043 -8.446448 18.153806 -4.930172 8.496361 2.648349 -6.884834 
0.476936 0.119083 1.019510 93.314261 -1.938055 86.365658 3.701965 -4.098720 -19.110745 -5.649420 6.524357 36.276076 0.190824 7.127877 -2.049025 0.000000 -0.000000 0.000000 0.666931 -1.361801 5.960791 1.649701 6.849135 7.111560 0.753404 -3.267759 -8.335991 0.000000 -0.000000 0.000000 -1.847618 5.037549 15.020347 1.551512 -1.805103 -6.201381 0.347078 -1.042359 -0.964186 4.875593 -0.899046 -7.017249 0.475098 -4.151743 13.559870 -31.236864 4.189028 0.904554 -54.886552 -6.776531 9.172317 5.908462 -24.016297 3.166314 -6.001558 -5.532205 -9.171950 29.844657 1.527547 -0.619455 50.195325 8.782633 15.390122 -8.737640 19.237624 -5.534557 8.433402 3.069175 -7.397402 
0.503614 0.121139 1.016984 93.156127 -1.645373 86.879266 3.128276 -4.480196 -19.974279 -4.865285 3.552524 25.568960 -0.513479 6.936535 -0.715135 0.000000 -0.000000 0.000000 0.944238 -1.919041 8.061320 1.376775 7.578274 5.995059 0.995221 -3.421632 -9.491366 0.000000 -0.000000 0.000000 -1.246980 5.167759 14.693045 1.414168 -2.026614 -6.029062 0.241514 -0.944084 -1.168477 5.048498 -0.737704 -6.949454 -0.075781 -5.078114 13.801279 -31.165343 4.610091 0.582227 -55.146583 -6.292560 9.728861 5.672783 -24.839675 3.415596 -6.154674 -5.874916 -9.228974 29.592363 1.811743 -0.777537 50.037542 9.499385 15.590197 -9.025418 20.429047 -5.902405 8.157803 3.836646 -7.230698 
0.530699 0.123749 1.013119 92.478373 -1.382410 87.443123 2.955311 -5.299583 -20.151082 -3.178452 1.754047 14.814735 -1.052802 6.854222 1.137212 0.000000 -0.000000 0.000000 1.168601 -1.950658 9.830302 1.165964 8.511130 5.603979 0.993799 -3.919314 -10.774169 0.000000 -0.000000 0.000000 -0.820242 5.496907 14.018091 1.339187 -2.044180 -5.489328 0.287276 -0.960663 -1.219714 4.959481 0.484600 -7.331312 -0.354900 -4.611178 13.360053 -31.255343 4.695402 0.453989 -55.561009 -5.924597 10.322409 6.032243 -25.566614 2.966724 -6.262382 -5.956498 -9.558838 29.500255 2.260883 -0.841174 49.666837 10.296390 16.030683 -9.360556 21.690341 -6.018620 8.241024 4.005082 -7.025711 
0.558660 0.126935 1.007839 91.835737 -0.980912 88.097629 2.739986 -5.020149 -20.591366 -1.129307 0.872296 6.712163 -1.143739 6.541786 2.382113 0.000000 -0.000000 0.000000 1.312223 -2.317130 11.158177 1.085963 9.202152 5.866122 1.128473 -3.744749 -11.977711 0.000000 -0.000000 0.000000 -0.561984 5.615493 13.654868 1.393816 -1.971651 -5.611642 0.456423 -0.696501 -1.416150 4.874855 0.829178 -7.304572 -0.551757 -4.668120 13.463770 -31.077678 4.809281 0.470922 -56.190405 -5.500540 10.709694 6.102283 -25.759186 3.183502 -6.187695 -6.001032 -9.715667 29.250941 2.436036 -0.686539 49.531572 10.534104 16.208974 -9.420008 22.703574 -5.885815 8.213077 4.526291 -7.038906 
0.588112 0.131024 1.001769 91.368741 -0.508328 88.552545 2.241925 -3.946049 -20.891799 0.238818 0.105259 1.201848 -1.264177 6.225602 2.427929 0.000000 -0.000000 0.000000 1.346786 -2.738511 12.620432 1.064548 9.887097 6.318382 1.649809 -3.409860 -13.181342 0.000000 -0.000000 0.000000 -0.358907 5.491329 13.318188 1.556779 -1.929117 -5.728733 0.668177 -0.516183 -1.444060 4.938132 1.169097 -7.169234 -0.893834 -4.759896 13.481153 -31.243827 4.911157 0.159440 -56.405320 -5.250960 10.717421 5.827427 -25.452169 3.494879 -6.167690 -5.556505 -8.870295 29.203425 2.640685 -0.831672 49.265876 10.774357 16.273828 -9.311284 23.085171 -5.644934 8.518229 4.875984 -6.098657 
0.619358 0.136038 0.995861 90.781206 -0.272198 88.648967 1.813006 -3.591182 -20.511550 0.765238 -0.345908 -1.803908 -1.335300 5.941664 2.523146 0.000000 -0.000000 0.000000 0.884953 -3.049313 14.253989 1.059511 10.476484 7.281572 2.105635 -2.981524 -14.014925 0.000000 -0.000000 0.000000 -0.299755 5.596224 13.065077 1.684801 -1.958286 -5.616871 0.794902 -0.333283 -1.456178 5.079610 1.424543 -6.859893 -1.123801 -4.622820 13.346646 -31.395423 4.728561 0.034680 -56.501041 -5.042356 10.818538 5.785299 -24.961761 4.198950 -6.377759 -5.145694 -8.211028 29.280694 2.682654 -0.819417 49.201302 10.812310 16.189699 -9.270536 23.335149 -5.464809 8.555408 4.862660 -5.629182 
0.652349 0.141512 0.990927 90.297988 -0.243527 88.669119 1.398562 -3.803363 -20.319150 0.144509 0.418867 -0.996451 -0.885260 5.898050 2.248387 0.000000 -0.000000 0.000000 0.161018 -3.002473 15.564474 1.426657 11.145382 9.486505 2.377925 -2.433659 -14.533846 0.000000 -0.000000 0.000000 -0.429827 5.968162 12.736596 1.834847 -2.153598 -5.686732 0.779251 -0.492215 -1.408002 5.267750 1.667516 -6.714185 -1.282789 -4.375327 13.382880 -31.431619 4.844469 -0.085345 -56.412822 -4.729553 10.890973 5.829304 -24.351529 4.814349 -6.477062 -4.821993 -7.542445 29.582558 2.357548 -0.993607 49.329945 10.546790 16.275459 -9.053257 23.158941 -5.293717 8.732444 4.451429 -5.646449 
